<svg width="476" height="273" viewBox="0 0 476 273" fill="none" xmlns="http://www.w3.org/2000/svg">
<path fill-rule="evenodd" clip-rule="evenodd" d="M64.4607 79.7322L80.4465 63.9767V151.709L64.4607 167.464V79.7322Z" fill="white"/>
<path fill-rule="evenodd" clip-rule="evenodd" d="M16.2236 211.777V255.315L0.517822 270.952V140.337L47.634 93.4253V115.194L16.2236 146.469V190.007L37.8731 168.451V190.22L16.2236 211.777Z" fill="white"/>
<path fill-rule="evenodd" clip-rule="evenodd" d="M128.965 41.7142V85.3311L113.54 100.997V57.3797L98.1155 73.0458V51.2371L144.39 4.24036V26.0486L128.965 41.7142Z" fill="white"/>
<path fill-rule="evenodd" clip-rule="evenodd" d="M64.4607 178.173L80.4465 162.416V192.137L64.4607 207.849V178.173ZM70.229 180.518V194.157L74.673 189.787V176.135L70.229 180.518Z" fill="white"/>
<path d="M459.061 242.346C457.006 242.346 455.23 241.302 453.732 239.216C452.235 237.129 451.486 233.94 451.486 229.649C451.486 225.505 452.367 222.169 454.129 219.642C455.92 217.114 458.592 214.925 462.144 213.073C463.26 212.485 464.2 211.956 464.963 211.486C465.727 211.016 466.196 210.575 466.373 210.163V204.873C466.373 203.668 466.226 202.639 465.932 201.787C465.668 200.905 464.993 200.464 463.906 200.464C462.908 200.464 462.233 200.935 461.88 201.875C461.528 202.786 461.352 203.933 461.352 205.314V207.606H452.455V205.578C452.455 202.933 452.969 200.656 453.997 198.745C455.054 196.805 456.478 195.321 458.269 194.293C460.089 193.234 462.144 192.705 464.435 192.705C466.637 192.705 468.545 193.22 470.16 194.248C471.775 195.248 473.023 196.644 473.904 198.437C474.814 200.2 475.269 202.228 475.269 204.52V233.264C475.269 235.41 475.328 237.085 475.445 238.29C475.563 239.465 475.709 240.582 475.886 241.64H467.165C466.784 241.17 466.549 240.479 466.461 239.568C466.402 238.657 466.373 238.055 466.373 237.761H465.756C465.022 239.113 464.082 240.215 462.937 241.067C461.821 241.919 460.53 242.346 459.061 242.346ZM462.673 233.617C463.701 233.617 464.567 233.264 465.271 232.559C466.006 231.853 466.373 231.089 466.373 230.266V218.804C464.229 219.715 462.658 221.096 461.66 222.948C460.691 224.77 460.207 226.828 460.207 229.12C460.207 230.119 460.397 231.119 460.779 232.118C461.161 233.117 461.792 233.617 462.673 233.617Z" fill="white"/>
<path d="M434.659 242.346V193.506H443.914V242.346H434.659ZM434.659 185.738V176.72H443.914V185.738H434.659Z" fill="white"/>
<path d="M413.969 259.173C411.407 259.173 409.011 258.889 406.781 258.321C404.551 257.754 402.742 256.827 401.356 255.543C400 254.288 399.322 252.63 399.322 250.569C399.322 248.985 399.759 247.611 400.633 246.446C401.537 245.281 402.562 244.325 403.707 243.578C404.852 242.861 405.771 242.413 406.464 242.233C404.988 241.815 403.692 241.098 402.577 240.082C401.492 239.067 400.949 237.603 400.949 235.691C400.949 233.839 401.552 232.33 402.757 231.165C403.963 230 405.259 229.058 406.645 228.341C404.988 227.266 403.692 225.862 402.757 224.129C401.853 222.366 401.401 220.215 401.401 217.676V204.322C401.401 200.647 402.426 197.66 404.475 195.359C406.555 193.029 409.388 191.864 412.974 191.864C415.295 191.864 417.179 192.312 418.625 193.208C420.102 194.075 421.262 195.12 422.106 196.345C422.98 194.881 424.156 193.776 425.632 193.029C427.109 192.252 428.435 191.864 429.611 191.864V199.93C428.405 199.93 427.35 200.035 426.446 200.244C425.542 200.423 424.819 200.677 424.276 201.006C424.367 201.215 424.457 201.648 424.547 202.305C424.668 202.963 424.728 203.545 424.728 204.053V217.945C424.728 221.41 423.658 224.293 421.519 226.594C419.379 228.894 416.531 230.044 412.974 230.044C412.13 230.044 411.558 230.014 411.256 229.955C410.865 230.313 410.548 230.672 410.307 231.03C410.096 231.389 409.991 231.777 409.991 232.195C409.991 233.151 410.533 233.839 411.618 234.257C412.733 234.645 414.21 234.974 416.048 235.243C419.936 235.81 423.086 236.931 425.497 238.604C427.938 240.277 429.159 242.95 429.159 246.625C429.159 249.493 428.42 251.853 426.943 253.705C425.497 255.558 423.613 256.932 421.292 257.828C418.972 258.725 416.531 259.173 413.969 259.173ZM414.15 251.554C415.657 251.554 416.968 251.286 418.083 250.748C419.198 250.21 419.755 249.374 419.755 248.238C419.755 247.103 419.409 246.326 418.716 245.908C418.053 245.52 416.922 245.131 415.325 244.743L411.528 243.847C410.593 244.384 409.795 244.997 409.132 245.684C408.499 246.371 408.182 247.193 408.182 248.149C408.182 249.075 408.649 249.867 409.584 250.524C410.518 251.211 412.04 251.554 414.15 251.554ZM413.065 222.516C414.029 222.516 414.722 222.187 415.144 221.53C415.566 220.873 415.777 219.887 415.777 218.572V204.232C415.777 203.037 415.581 202.066 415.189 201.319C414.798 200.573 414.089 200.199 413.065 200.199C412.04 200.199 411.332 200.587 410.94 201.364C410.548 202.141 410.352 203.097 410.352 204.232V218.572C410.352 219.887 410.563 220.873 410.985 221.53C411.407 222.187 412.1 222.516 413.065 222.516Z" fill="white"/>
<path d="M382.495 242.346C378.826 242.346 375.946 241.153 373.854 238.768C371.762 236.354 370.716 233.307 370.716 229.626V205.425C370.716 201.744 371.762 198.712 373.854 196.327C375.946 193.913 378.826 192.705 382.495 192.705C386.133 192.705 388.998 193.913 391.091 196.327C393.213 198.712 394.274 201.744 394.274 205.425V229.626C394.274 233.307 393.213 236.354 391.091 238.768C388.998 241.153 386.133 242.346 382.495 242.346ZM382.495 234.573C383.677 234.573 384.496 234.116 384.951 233.204C385.406 232.262 385.633 231.069 385.633 229.626V205.425C385.633 203.953 385.406 202.76 384.951 201.847C384.496 200.935 383.677 200.478 382.495 200.478C381.313 200.478 380.494 200.935 380.039 201.847C379.584 202.76 379.357 203.953 379.357 205.425V229.626C379.357 231.099 379.584 232.291 380.039 233.204C380.494 234.116 381.313 234.573 382.495 234.573Z" fill="white"/>
<path d="M354.73 242.346V176.72H363.985V242.346H354.73Z" fill="white"/>
<path d="M336.64 242.346C333.102 242.346 330.325 241.153 328.308 238.768C326.29 236.354 325.282 233.307 325.282 229.626V205.425C325.282 201.744 326.29 198.712 328.308 196.327C330.325 193.913 333.102 192.705 336.64 192.705C340.148 192.705 342.911 193.913 344.929 196.327C346.975 198.712 347.998 201.744 347.998 205.425V229.626C347.998 233.307 346.975 236.354 344.929 238.768C342.911 241.153 340.148 242.346 336.64 242.346ZM336.64 234.573C337.78 234.573 338.57 234.116 339.008 233.204C339.447 232.262 339.666 231.069 339.666 229.626V205.425C339.666 203.953 339.447 202.76 339.008 201.847C338.57 200.935 337.78 200.478 336.64 200.478C335.5 200.478 334.71 200.935 334.272 201.847C333.833 202.76 333.614 203.953 333.614 205.425V229.626C333.614 231.099 333.833 232.291 334.272 233.204C334.71 234.116 335.5 234.573 336.64 234.573Z" fill="white"/>
<path d="M294.994 241.504V193.409H304.18V197.453C305.272 196.428 306.5 195.387 307.864 194.332C309.229 193.248 310.487 192.705 311.639 192.705C313.155 192.705 314.428 193.174 315.459 194.112C316.49 195.05 317.263 196.237 317.779 197.673C318.294 199.109 318.552 200.589 318.552 202.114V241.504H309.365V203.872C309.365 202.934 309.198 202.275 308.865 201.894C308.531 201.513 307.97 201.322 307.182 201.322C306.515 201.322 305.939 201.557 305.454 202.026C304.999 202.465 304.575 202.993 304.18 203.608V241.504H294.994Z" fill="white"/>
<path d="M276.86 242.346C272.971 242.346 270.106 241.125 268.264 238.683C266.451 236.242 265.545 232.844 265.545 228.491V206.561C265.545 202.178 266.451 198.78 268.264 196.368C270.106 193.926 272.971 192.705 276.86 192.705C280.748 192.705 283.613 193.926 285.455 196.368C287.326 198.809 288.262 202.207 288.262 206.561V210.355H279.403V205.413C279.403 204.06 279.228 202.928 278.877 202.016C278.526 201.104 277.854 200.648 276.86 200.648C275.866 200.648 275.208 201.119 274.886 202.06C274.565 202.972 274.404 204.09 274.404 205.413V229.638C274.404 230.962 274.565 232.094 274.886 233.035C275.208 233.947 275.866 234.403 276.86 234.403C277.854 234.403 278.526 233.947 278.877 233.035C279.228 232.123 279.403 230.991 279.403 229.638V224.696H288.262V228.491C288.262 232.844 287.326 236.242 285.455 238.683C283.613 241.125 280.748 242.346 276.86 242.346Z" fill="white"/>
<path d="M246.99 242.346C243.349 242.346 240.476 241.126 238.37 238.687C236.294 236.218 235.256 233.205 235.256 229.649V205.402C235.256 201.64 236.294 198.583 238.37 196.232C240.446 193.881 243.349 192.705 247.08 192.705C249.517 192.705 251.608 193.249 253.353 194.337C255.129 195.424 256.482 196.908 257.415 198.789C258.348 200.641 258.814 202.757 258.814 205.138V219.157H243.741V229.649C243.741 230.854 244.011 231.971 244.553 233C245.125 233.999 245.967 234.498 247.08 234.498C248.254 234.498 249.081 234.028 249.562 233.088C250.074 232.147 250.33 231.001 250.33 229.649V224.359H258.814V229.914C258.814 233.646 257.776 236.659 255.7 238.951C253.654 241.214 250.751 242.346 246.99 242.346ZM243.741 212.191H250.33V205.402C250.33 204.079 250.089 202.933 249.608 201.963C249.156 200.964 248.314 200.464 247.08 200.464C245.937 200.464 245.095 200.979 244.553 202.007C244.011 203.007 243.741 204.138 243.741 205.402V212.191Z" fill="white"/>
<path d="M214.045 242.346V186.631H204.968V176.72H232.733V186.631H223.656V242.346H214.045Z" fill="white"/>
<path d="M456.928 160.734C454.718 160.734 452.973 159.969 451.695 158.439C450.434 156.891 449.804 155.002 449.804 152.771V137.566C449.804 135.206 450.434 133.29 451.695 131.815C452.955 130.341 454.718 129.603 456.983 129.603C458.463 129.603 459.732 129.944 460.792 130.626C461.869 131.308 462.691 132.239 463.258 133.419C463.824 134.58 464.107 135.907 464.107 137.4V146.191H454.955V152.771C454.955 153.527 455.12 154.227 455.448 154.873C455.796 155.499 456.307 155.813 456.983 155.813C457.695 155.813 458.198 155.518 458.49 154.928C458.8 154.338 458.956 153.619 458.956 152.771V149.454H464.107V152.937C464.107 155.278 463.477 157.167 462.216 158.605C460.974 160.024 459.212 160.734 456.928 160.734ZM454.955 141.823H458.956V137.566C458.956 136.736 458.81 136.017 458.517 135.409C458.243 134.783 457.732 134.469 456.983 134.469C456.289 134.469 455.777 134.792 455.448 135.437C455.12 136.064 454.955 136.773 454.955 137.566V141.823Z" fill="white"/>
<path d="M416.57 161.575C413.032 161.575 410.255 160.363 408.237 157.937C406.22 155.482 405.211 152.383 405.211 148.641V124.029C405.211 120.286 406.22 117.202 408.237 114.777C410.255 112.321 413.032 111.094 416.57 111.094C420.078 111.094 422.841 112.321 424.858 114.777C426.905 117.202 427.928 120.286 427.928 124.029V148.641C427.928 152.383 426.905 155.482 424.858 157.937C422.841 160.363 420.078 161.575 416.57 161.575ZM416.57 153.671C417.71 153.671 418.499 153.207 418.938 152.278C419.376 151.32 419.596 150.108 419.596 148.641V124.029C419.596 122.531 419.376 121.319 418.938 120.391C418.499 119.462 417.71 118.998 416.57 118.998C415.43 118.998 414.64 119.462 414.202 120.391C413.763 121.319 413.544 122.531 413.544 124.029V148.641C413.544 150.138 413.763 151.35 414.202 152.278C414.64 153.207 415.43 153.671 416.57 153.671Z" fill="white"/>
<path d="M381.076 161.576C378.95 161.576 377.113 160.519 375.563 158.405C374.014 156.291 373.24 153.061 373.24 148.714C373.24 144.516 374.151 141.137 375.974 138.577C377.826 136.016 380.59 133.798 384.266 131.923C385.42 131.327 386.392 130.791 387.182 130.315C387.971 129.839 388.457 129.392 388.64 128.975V123.616C388.64 122.396 388.488 121.354 388.184 120.49C387.911 119.597 387.212 119.15 386.088 119.15C385.055 119.15 384.357 119.627 383.992 120.58C383.628 121.502 383.446 122.664 383.446 124.063V126.385H374.242V124.331C374.242 121.651 374.774 119.344 375.837 117.409C376.93 115.444 378.403 113.94 380.256 112.898C382.139 111.827 384.266 111.291 386.635 111.291C388.913 111.291 390.887 111.812 392.558 112.854C394.228 113.866 395.519 115.28 396.43 117.096C397.372 118.883 397.843 120.937 397.843 123.259V152.376C397.843 154.55 397.904 156.247 398.025 157.467C398.147 158.658 398.298 159.789 398.481 160.861H389.46C389.065 160.385 388.822 159.685 388.731 158.762C388.67 157.839 388.64 157.229 388.64 156.931H388.002C387.242 158.301 386.27 159.417 385.086 160.281C383.932 161.144 382.595 161.576 381.076 161.576ZM384.812 152.733C385.875 152.733 386.771 152.376 387.5 151.662C388.26 150.947 388.64 150.173 388.64 149.339V137.728C386.422 138.651 384.797 140.05 383.764 141.926C382.762 143.772 382.261 145.856 382.261 148.178C382.261 149.191 382.458 150.203 382.853 151.215C383.248 152.227 383.901 152.733 384.812 152.733ZM390.28 107.048C388.852 107.048 387.546 106.78 386.361 106.244C385.055 105.649 383.689 105.351 382.261 105.351C381.441 105.351 380.59 105.5 379.71 105.798C378.829 106.066 378.069 106.393 377.431 106.78V100.171C377.857 99.8433 378.328 99.5753 378.844 99.3669C379.36 99.1287 379.892 98.9203 380.439 98.7417C380.985 98.5631 381.593 98.4738 382.261 98.4738C383.689 98.4738 385.025 98.7119 386.27 99.1883C386.939 99.4265 387.607 99.6498 388.275 99.8582C388.943 100.067 389.611 100.171 390.28 100.171C391.1 100.171 391.95 100.037 392.831 99.7688C393.712 99.4711 394.471 99.1287 395.109 98.7417V105.351C394.532 105.857 393.758 106.274 392.786 106.602C391.814 106.899 390.978 107.048 390.28 107.048Z" fill="white"/>
<path d="M355.948 161.414C352.059 161.414 349.194 160.176 347.352 157.701C345.539 155.226 344.633 151.782 344.633 147.369V125.139C344.633 120.696 345.539 117.251 347.352 114.806C349.194 112.331 352.059 111.094 355.948 111.094C359.836 111.094 362.701 112.331 364.543 114.806C366.414 117.281 367.35 120.725 367.35 125.139V128.985H358.491V123.976C358.491 122.604 358.316 121.456 357.965 120.532C357.614 119.607 356.942 119.145 355.948 119.145C354.954 119.145 354.296 119.622 353.974 120.576C353.653 121.501 353.492 122.634 353.492 123.976V148.532C353.492 149.874 353.653 151.022 353.974 151.976C354.296 152.901 354.954 153.363 355.948 153.363C356.942 153.363 357.614 152.901 357.965 151.976C358.316 151.052 358.491 149.904 358.491 148.532V143.522H367.35V147.369C367.35 151.782 366.414 155.226 364.543 157.701C362.701 160.176 359.836 161.414 355.948 161.414ZM361.386 163.472C362.672 163.472 363.841 163.904 364.894 164.769C365.946 165.663 366.473 167.154 366.473 169.242C366.473 171.18 365.932 172.76 364.85 173.983C363.798 175.235 362.423 176.145 360.728 176.711C359.061 177.278 357.307 177.561 355.465 177.561C353.886 177.561 352.278 177.308 350.641 176.801C349.033 176.324 347.849 175.802 347.089 175.235L349.369 170.315C349.896 170.703 350.802 171.165 352.088 171.702C353.404 172.238 354.69 172.507 355.948 172.507C357.234 172.507 358.33 172.283 359.237 171.836C360.143 171.389 360.596 170.613 360.596 169.51C360.596 168.586 360.348 167.959 359.851 167.631C359.383 167.303 358.871 167.139 358.316 167.139C357 167.139 356.05 167.646 355.465 168.66L350.685 167.05L353.272 160.743H358.491L356.43 165.574H356.035C356.269 164.918 356.927 164.396 358.009 164.008C359.09 163.65 360.216 163.472 361.386 163.472Z" fill="white"/>
<path d="M320.237 161.575C318.182 161.575 316.405 160.514 314.908 158.392C313.41 156.27 312.662 153.027 312.662 148.664C312.662 144.449 313.543 141.057 315.304 138.486C317.095 135.916 319.767 133.689 323.32 131.806C324.436 131.209 325.375 130.671 326.139 130.192C326.902 129.714 327.372 129.266 327.548 128.847V123.468C327.548 122.242 327.401 121.196 327.108 120.329C326.843 119.433 326.168 118.984 325.082 118.984C324.083 118.984 323.408 119.463 323.056 120.419C322.703 121.345 322.527 122.511 322.527 123.916V126.247H313.631V124.185C313.631 121.495 314.145 119.179 315.172 117.236C316.229 115.263 317.653 113.754 319.444 112.708C321.265 111.632 323.32 111.094 325.61 111.094C327.812 111.094 329.721 111.617 331.336 112.663C332.951 113.679 334.198 115.099 335.079 116.922C335.99 118.715 336.445 120.778 336.445 123.109V152.34C336.445 154.522 336.503 156.225 336.621 157.451C336.738 158.646 336.885 159.782 337.061 160.858H328.341C327.959 160.38 327.724 159.677 327.636 158.751C327.577 157.824 327.548 157.212 327.548 156.913H326.931C326.197 158.288 325.258 159.408 324.113 160.275C322.997 161.142 321.705 161.575 320.237 161.575ZM323.848 152.698C324.876 152.698 325.742 152.34 326.447 151.622C327.181 150.905 327.548 150.128 327.548 149.291V137.635C325.405 138.561 323.834 139.966 322.836 141.849C321.867 143.702 321.382 145.794 321.382 148.126C321.382 149.142 321.573 150.158 321.955 151.174C322.336 152.19 322.968 152.698 323.848 152.698Z" fill="white"/>
<path d="M291.295 160.734L283.214 111.935H292.112L295.199 140.215L295.471 145.122H296.198L296.47 140.215L299.557 111.935H308.455L300.374 160.734H291.295Z" fill="white"/>
<path d="M266.807 161.575C263.27 161.575 260.492 160.363 258.475 157.937C256.458 155.482 255.449 152.383 255.449 148.641V124.029C255.449 120.286 256.458 117.202 258.475 114.777C260.492 112.321 263.27 111.094 266.807 111.094C270.316 111.094 273.079 112.321 275.096 114.777C277.143 117.202 278.166 120.286 278.166 124.029V148.641C278.166 152.383 277.143 155.482 275.096 157.937C273.079 160.363 270.316 161.575 266.807 161.575ZM266.807 153.671C267.948 153.671 268.737 153.207 269.176 152.278C269.614 151.32 269.833 150.108 269.833 148.641V124.029C269.833 122.531 269.614 121.319 269.176 120.391C268.737 119.462 267.948 118.998 266.807 118.998C265.667 118.998 264.878 119.462 264.439 120.391C264.001 121.319 263.781 122.531 263.781 124.029V148.641C263.781 150.138 264.001 151.35 264.439 152.278C264.878 153.207 265.667 153.671 266.807 153.671Z" fill="white"/>
<path d="M225.16 160.734V111.809H234.347V115.924C235.438 114.88 236.666 113.822 238.03 112.748C239.395 111.645 240.653 111.094 241.805 111.094C243.321 111.094 244.595 111.571 245.625 112.525C246.656 113.479 247.429 114.686 247.945 116.147C248.46 117.608 248.718 119.114 248.718 120.664V160.734H239.531V122.453C239.531 121.499 239.365 120.828 239.031 120.44C238.697 120.053 238.137 119.859 237.348 119.859C236.681 119.859 236.105 120.098 235.62 120.575C235.165 121.022 234.741 121.558 234.347 122.185V160.734H225.16Z" fill="white"/>
<path d="M207.492 160.734V95.9497H216.747V160.734H207.492Z" fill="white"/>
<path d="M393.448 80.8053C391.314 80.8053 389.414 80.3321 387.745 79.3855C386.104 78.439 384.819 77.1166 383.889 75.4185C382.959 73.7203 382.494 71.7715 382.494 69.5723C382.494 67.8741 382.754 66.3429 383.274 64.9788C383.793 63.5868 384.518 62.3758 385.448 61.3458C386.405 60.3158 387.54 59.5223 388.853 58.9656C390.166 58.3809 391.588 58.0886 393.119 58.0886C394.569 58.0886 395.882 58.3531 397.058 58.882C398.261 59.411 399.287 60.1487 400.134 61.0952C401.01 62.0139 401.666 63.1136 402.103 64.3942C402.541 65.6748 402.733 67.0807 402.678 68.6118L402.637 70.0734H384.792L384.34 67.4426H400.298L399.56 68.1525V67.1502C399.505 66.148 399.218 65.1876 398.699 64.2689C398.179 63.3224 397.44 62.5568 396.483 61.9722C395.553 61.3876 394.432 61.0952 393.119 61.0952C391.588 61.0952 390.261 61.4154 389.14 62.0557C388.019 62.6682 387.157 63.5868 386.556 64.8118C385.954 66.0367 385.653 67.5539 385.653 69.3635C385.653 71.0895 385.981 72.5928 386.638 73.8734C387.294 75.1262 388.224 76.1005 389.427 76.7965C390.658 77.4925 392.135 77.8405 393.858 77.8405C394.87 77.8405 395.868 77.6734 396.852 77.3394C397.864 76.9775 398.972 76.2815 400.175 75.2514L401.775 77.5064C401.146 78.1467 400.394 78.7174 399.519 79.2185C398.644 79.6918 397.687 80.0815 396.647 80.3877C395.608 80.6661 394.541 80.8053 393.448 80.8053Z" fill="white"/>
<path d="M364.96 80.8051C363.015 80.8051 361.262 80.3209 359.701 79.3524C358.167 78.3839 356.949 77.0556 356.045 75.3677C355.168 73.6521 354.73 71.7151 354.73 69.5567C354.73 67.3707 355.182 65.4337 356.086 63.7457C356.99 62.0301 358.209 60.688 359.742 59.7195C361.276 58.751 363.001 58.2668 364.919 58.2668C365.987 58.2668 367.014 58.4328 368 58.7649C369.013 59.0969 369.917 59.5673 370.711 60.1761C371.505 60.7572 372.163 61.4351 372.683 62.2099C373.203 62.9571 373.518 63.7457 373.628 64.5758L372.683 64.2438V49.6748H375.764V80.39H372.724L372.642 74.9941L373.423 74.7036C373.313 75.4784 372.998 76.2393 372.478 76.9865C371.985 77.7059 371.355 78.3562 370.588 78.9373C369.821 79.5184 368.945 79.975 367.959 80.307C367 80.6391 366 80.8051 364.96 80.8051ZM365.412 77.9411C366.836 77.9411 368.109 77.5814 369.232 76.8619C370.355 76.1425 371.232 75.1463 371.861 73.8734C372.519 72.6005 372.847 71.1478 372.847 69.5152C372.847 67.8826 372.519 66.4437 371.861 65.1984C371.232 63.9256 370.355 62.9294 369.232 62.2099C368.109 61.4628 366.836 61.0892 365.412 61.0892C363.933 61.0892 362.632 61.4628 361.509 62.2099C360.413 62.9294 359.537 63.9256 358.88 65.1984C358.25 66.4437 357.935 67.8826 357.935 69.5152C357.935 71.1201 358.25 72.559 358.88 73.8319C359.509 75.1048 360.386 76.1148 361.509 76.8619C362.632 77.5814 363.933 77.9411 365.412 77.9411Z" fill="white"/>
<path d="M303.406 79.964V58.4998H306.52L306.603 63.393L305.981 63.5986C306.202 62.7762 306.562 62.0361 307.06 61.3781C307.586 60.6928 308.209 60.1035 308.929 59.61C309.648 59.1166 310.437 58.7465 311.295 58.4998C312.153 58.2257 313.053 58.0886 313.994 58.0886C315.129 58.0886 316.14 58.2805 317.025 58.6643C317.939 59.0207 318.7 59.6511 319.309 60.5558C319.946 61.433 320.43 62.598 320.762 64.0509L320.015 63.6808L320.306 62.9818C320.582 62.3513 320.984 61.7482 321.51 61.1726C322.063 60.5695 322.686 60.0349 323.378 59.5689C324.098 59.1029 324.873 58.7465 325.703 58.4998C326.562 58.2257 327.433 58.0886 328.319 58.0886C329.842 58.0886 331.129 58.4176 332.181 59.0755C333.233 59.706 334.022 60.6791 334.548 61.9949C335.101 63.3107 335.378 64.9829 335.378 67.0115V79.964H332.181V67.1759C332.181 65.7505 332.001 64.5854 331.641 63.6808C331.281 62.7762 330.741 62.1046 330.022 61.666C329.33 61.2 328.444 60.967 327.364 60.967C326.423 60.967 325.551 61.1314 324.748 61.4604C323.973 61.7619 323.295 62.2005 322.714 62.7762C322.16 63.3245 321.717 63.9549 321.385 64.6677C321.081 65.3804 320.928 66.148 320.928 66.9703V79.964H317.773V67.1348C317.773 65.7642 317.579 64.6266 317.191 63.7219C316.832 62.8173 316.292 62.132 315.572 61.666C314.852 61.2 313.967 60.967 312.915 60.967C312.001 60.967 311.157 61.1314 310.382 61.4604C309.607 61.7619 308.929 62.1868 308.347 62.7351C307.794 63.2833 307.351 63.9138 307.019 64.6266C306.714 65.3393 306.562 66.1068 306.562 66.9292V79.964H303.406Z" fill="white"/>
<path d="M284.361 80.8053C282.667 80.8053 281.227 80.4637 280.041 79.7805C278.883 79.0688 277.994 78.044 277.372 76.7061C276.779 75.3681 276.483 73.7028 276.483 71.7101V58.0886H279.702V71.0696C279.702 72.5784 279.9 73.8451 280.295 74.8699C280.719 75.8663 281.34 76.6207 282.159 77.1331C283.006 77.6455 284.037 77.9017 285.251 77.9017C286.183 77.9017 287.044 77.7451 287.835 77.432C288.625 77.0904 289.317 76.6349 289.91 76.0656C290.503 75.4962 290.969 74.8272 291.308 74.0586C291.647 73.29 291.816 72.4787 291.816 71.6247V58.0886H294.993V80.3783H291.858L291.731 75.6813L292.24 75.4251C291.901 76.4214 291.336 77.3323 290.545 78.1579C289.755 78.955 288.809 79.5955 287.707 80.0794C286.634 80.5634 285.519 80.8053 284.361 80.8053Z" fill="white"/>
<path d="M259.656 79.964V58.5401H262.865L262.951 64.2449L262.608 63.4651C262.922 62.5075 263.421 61.6182 264.106 60.7974C264.819 59.9766 265.66 59.3199 266.63 58.8274C267.6 58.3349 268.669 58.0886 269.838 58.0886C270.323 58.0886 270.78 58.1297 271.207 58.2117C271.635 58.2665 271.992 58.3486 272.277 58.458L271.378 61.9055C271.008 61.7414 270.623 61.6319 270.223 61.5772C269.853 61.4951 269.496 61.4541 269.154 61.4541C268.184 61.4541 267.314 61.6182 266.544 61.9466C265.774 62.2749 265.118 62.74 264.576 63.342C264.034 63.9166 263.621 64.5869 263.336 65.353C263.05 66.1192 262.908 66.94 262.908 67.8156V79.964H259.656Z" fill="white"/>
<path d="M242.429 80.8047C240.221 80.8047 238.254 80.3196 236.527 79.3495C234.829 78.3794 233.484 77.0351 232.493 75.3167C231.531 73.5982 231.05 71.6442 231.05 69.4545C231.05 67.2926 231.531 65.3663 232.493 63.6755C233.484 61.9848 234.829 60.6543 236.527 59.6842C238.254 58.7141 240.221 58.2291 242.429 58.2291C244.609 58.2291 246.548 58.7141 248.246 59.6842C249.973 60.6543 251.318 61.9848 252.28 63.6755C253.271 65.3663 253.766 67.2926 253.766 69.4545C253.766 71.6442 253.271 73.5982 252.28 75.3167C251.318 77.0351 249.973 78.3794 248.246 79.3495C246.548 80.3196 244.609 80.8047 242.429 80.8047ZM242.429 77.8528C243.986 77.8528 245.373 77.4925 246.59 76.7718C247.808 76.0235 248.756 75.0257 249.435 73.7784C250.115 72.5034 250.454 71.0621 250.454 69.4545C250.454 67.8469 250.115 66.4195 249.435 65.1722C248.756 63.925 247.808 62.9549 246.59 62.2619C245.373 61.5413 243.986 61.181 242.429 61.181C240.872 61.181 239.471 61.5413 238.226 62.2619C237.008 62.9549 236.046 63.9388 235.338 65.2138C234.659 66.4611 234.333 67.8746 234.362 69.4545C234.333 71.0621 234.659 72.5034 235.338 73.7784C236.046 75.0257 237.008 76.0235 238.226 76.7718C239.471 77.4925 240.872 77.8528 242.429 77.8528ZM239.754 55.4851L238.608 53.7805L244.637 48.833L246.718 51.4523L239.754 55.4851Z" fill="white"/>
<path d="M208.333 79.9633V51.3571H211.614V79.9633H208.333ZM209.973 67.2131V64.0664H224.865V67.2131H209.973ZM209.973 54.4629V51.3571H226.842V54.4629H209.973Z" fill="white"/>
<path d="M176.361 272.635H174.678L174.678 0.875977L176.361 0.875977L176.361 272.635Z" fill="white"/>
</svg>
