<svg width="556" height="273" viewBox="0 0 556 273" fill="none" xmlns="http://www.w3.org/2000/svg">
<path d="M468.465 185.454L489.348 87.2419H555.401L551.998 103.255H507.162L502.225 126.473H544.059L540.656 142.486H498.822L493.084 169.441H539.588L536.186 185.454H468.465Z" fill="white"/>
<path d="M357.147 185.281L413.16 87.2419H438.269L452.588 185.281H431.409L428.411 164.301H389.049L377.327 185.281H357.147ZM397.774 148.316H426.347L421.019 106.423L397.774 148.316Z" fill="white"/>
<path d="M271.157 185.496L292.05 87.2419H332.833C346.094 87.2419 354.882 89.6004 359.199 94.3173C363.604 98.9897 364.984 105.153 363.337 112.807C360.667 125.444 352.146 133.321 337.772 136.436C343.379 137.237 347.095 138.928 348.919 141.509C350.788 144.045 351.478 148.695 350.989 155.459C350.232 165.427 349.787 172.547 349.654 176.819C349.52 181.091 350.054 183.983 351.256 185.496H327.76C327.938 182.381 328.227 177.887 328.628 172.013C329.028 166.139 329.362 161.333 329.629 157.595C329.941 152.211 329.384 148.873 327.96 147.583C326.581 146.248 324.133 145.58 320.618 145.58H300.86L292.383 185.496H271.157ZM304.198 129.828H322.086C327.159 129.828 331.32 128.582 334.568 126.09C337.861 123.598 339.953 120.216 340.843 115.944C341.822 111.405 341.288 108.068 339.241 105.932C337.238 103.796 333.211 102.728 327.159 102.728H325.958H310.005L304.198 129.828Z" fill="white"/>
<path d="M179.196 185.304L200.047 87.2419H239.352C252.054 87.2419 260.381 89.6846 264.334 94.5699C268.331 99.4553 269.552 105.518 267.998 112.757C265.777 123.371 258.427 130.522 245.947 134.208C252.032 135.407 256.65 138.072 259.804 142.202C262.913 146.288 263.756 151.684 262.335 158.39C260.781 165.763 256.495 172.091 249.478 177.376C242.55 182.661 231.824 185.304 217.301 185.304H179.196ZM203.645 169.848H222.031C233.356 169.848 239.974 165.407 241.883 156.525C243.038 150.973 242.061 147.243 238.952 145.333C235.799 143.379 231.602 142.402 226.361 142.402H222.364H209.507L203.645 169.848ZM212.771 126.946H229.692C239.33 126.946 245.015 122.883 246.747 114.755C248.479 106.717 244.482 102.697 234.755 102.697H217.968L212.771 126.946Z" fill="white"/>
<path d="M94.4004 185.454L115.284 87.2419H181.337L177.934 103.255H133.098L128.161 126.473H169.995L166.592 142.486H124.758L119.02 169.441H165.524L162.122 185.454H94.4004Z" fill="white"/>
<path d="M1.23247 152.338H22.8248C20.1395 164.972 24.5196 171.289 35.9651 171.289C42.04 171.289 46.9704 170.056 50.7562 167.591C54.542 165.082 56.8752 161.802 57.7556 157.752C58.5039 154.143 57.8656 151.479 55.8407 149.762C53.7717 148.046 48.5111 146.065 40.0591 143.82C27.6451 140.738 19.5232 136.974 15.6934 132.528C11.9516 128.038 10.8071 122.293 12.2598 115.294C14.1967 106.358 19.039 99.0501 26.7867 93.3714C34.5344 87.6927 44.5713 84.8533 56.8972 84.8533C67.8144 84.8533 75.8042 87.4286 80.8667 92.579C85.8851 97.6855 87.3818 104.971 85.3568 114.436H65.0191C66.2957 104.619 62.2237 99.7105 52.8032 99.7105C48.0049 99.7105 43.9329 100.899 40.5873 103.276C37.3298 105.653 35.2608 108.845 34.3804 112.851C33.544 116.769 34.5785 119.696 37.4839 121.633C40.4333 123.57 46.09 125.529 54.454 127.51C64.843 129.975 72.0845 133.299 76.1784 137.481C80.2724 141.619 81.571 147.253 80.0743 154.385C78.0053 164.069 72.5467 171.795 63.6984 177.562C54.8502 183.285 44.5272 186.146 32.7296 186.146C19.3912 186.146 10.1908 183.395 5.12833 177.892C0.109927 172.389 -1.1887 163.871 1.23247 152.338Z" fill="white"/>
<path d="M167.324 243.676H339.113L333.07 272.359H161.281L167.324 243.676Z" fill="white"/>
<path d="M176.948 198.312H350.709L344.597 228.049H170.836L176.948 198.312Z" fill="white"/>
<path d="M209.071 46.6357H379.343L373.354 75.7757H203.082L209.071 46.6357Z" fill="white"/>
<path d="M218.789 0.0579224H393.704L387.551 29.9925H212.636L218.789 0.0579224Z" fill="white"/>
</svg>
