<svg width="392" height="377" viewBox="0 0 392 377" fill="none" xmlns="http://www.w3.org/2000/svg">
<path d="M127.471 238.987V160.301C127.471 151.622 130.046 144.707 135.197 139.557C140.347 134.311 147.691 131.688 157.229 131.688C160.472 131.688 163.571 132.022 166.528 132.69C169.58 133.357 172.155 134.407 174.253 135.837L168.388 152.004C167.148 151.145 165.765 150.478 164.239 150.001C162.713 149.524 161.091 149.285 159.375 149.285C156.132 149.285 153.604 150.239 151.792 152.147C150.075 153.959 149.217 156.725 149.217 160.444V167.598L149.789 177.183V238.987H127.471ZM115.597 180.903V163.735H168.96V180.903H115.597ZM180.691 238.987V162.018H203.01V238.987H180.691ZM191.851 151.288C187.749 151.288 184.411 150.096 181.836 147.712C179.261 145.327 177.973 142.37 177.973 138.842C177.973 135.313 179.261 132.356 181.836 129.971C184.411 127.587 187.749 126.395 191.851 126.395C195.952 126.395 199.29 127.539 201.865 129.828C204.44 132.022 205.728 134.883 205.728 138.412C205.728 142.132 204.44 145.232 201.865 147.712C199.385 150.096 196.047 151.288 191.851 151.288ZM255.144 240.132C246.083 240.132 239.025 237.843 233.97 233.265C228.915 228.591 226.387 221.676 226.387 212.52V144.993H248.706V212.234C248.706 215.477 249.564 218.004 251.281 219.817C252.998 221.533 255.334 222.392 258.291 222.392C261.82 222.392 264.824 221.438 267.304 219.53L273.313 235.268C271.024 236.889 268.258 238.129 265.015 238.987C261.868 239.75 258.577 240.132 255.144 240.132ZM214.513 179.186V162.018H267.876V179.186H214.513Z" fill="black"/>
<path d="M200.258 101.298C248.975 103.584 292.419 115.732 323.261 133.344C354.303 151.069 371.586 173.672 370.51 196.615C369.433 219.557 350.108 240.442 317.543 255.182C285.187 269.828 240.796 277.854 192.079 275.568C143.362 273.281 99.9172 261.132 69.0751 243.521C38.0335 225.795 20.7496 203.192 21.8263 180.25C22.9033 157.307 42.2281 136.422 74.7935 121.682C107.15 107.036 151.541 99.0112 200.258 101.298Z" stroke="black" stroke-width="7.57405"/>
<path d="M130.019 109.758C164.781 80.6444 203.673 63.4226 238.316 58.9663C273.009 54.5036 302.881 62.8609 320.65 84.0777C338.419 105.294 341.404 136.169 330.922 169.541C320.455 202.864 296.674 238.13 261.912 267.243C227.15 296.356 188.258 313.578 153.615 318.034C118.922 322.497 89.0503 314.139 71.2814 292.922C53.5125 271.706 50.5276 240.831 61.0098 207.459C71.4769 174.136 95.2567 138.871 130.019 109.758Z" stroke="black" stroke-width="7.57405"/>
<path d="M119.063 40.4063C119.221 39.957 119.886 40.0743 119.881 40.5505L119.583 66.9837C119.581 67.1641 119.694 67.3257 119.864 67.3855L144.805 76.1459C145.254 76.3037 145.137 76.9691 144.661 76.9637L118.228 76.6654C118.047 76.6634 117.886 76.7765 117.826 76.9467L109.066 101.888C108.908 102.337 108.242 102.22 108.248 101.744L108.546 75.3104C108.548 75.1301 108.435 74.9684 108.265 74.9087L83.3236 66.1482C82.8743 65.9904 82.9916 65.3251 83.4678 65.3305L109.901 65.6287C110.081 65.6308 110.243 65.5176 110.303 65.3474L119.063 40.4063Z" fill="black"/>
<path d="M351.337 245.508C351.358 245.23 351.752 245.196 351.821 245.466L355.658 260.459C355.684 260.562 355.773 260.636 355.878 260.644L371.31 261.819C371.588 261.84 371.623 262.234 371.353 262.303L356.359 266.14C356.257 266.166 356.182 266.254 356.174 266.36L355 281.792C354.978 282.07 354.584 282.104 354.515 281.834L350.678 266.841C350.652 266.738 350.564 266.664 350.458 266.656L335.026 265.481C334.748 265.46 334.714 265.066 334.984 264.997L349.978 261.16C350.08 261.134 350.154 261.045 350.162 260.94L351.337 245.508Z" fill="black"/>
<path d="M254.96 329.983V321.217L273.481 303.898C274.8 302.673 275.767 301.589 276.379 300.646C277.039 299.704 277.463 298.855 277.652 298.101C277.887 297.3 278.005 296.57 278.005 295.91C278.005 294.307 277.463 293.059 276.379 292.163C275.342 291.268 273.764 290.82 271.643 290.82C269.852 290.82 268.179 291.221 266.624 292.022C265.069 292.823 263.796 294.025 262.807 295.627L252.415 289.83C254.253 286.72 256.916 284.222 260.403 282.337C263.89 280.452 268.061 279.509 272.915 279.509C276.733 279.509 280.079 280.122 282.954 281.347C285.828 282.573 288.067 284.316 289.669 286.579C291.319 288.841 292.143 291.503 292.143 294.567C292.143 296.169 291.931 297.771 291.507 299.374C291.083 300.929 290.258 302.602 289.033 304.393C287.855 306.136 286.087 308.092 283.731 310.26L269.027 323.833L266.695 318.884H293.486V329.983H254.96ZM314.88 330.973C311.487 330.973 308.07 330.548 304.63 329.7C301.189 328.852 298.22 327.65 295.723 326.095L300.742 315.562C302.768 316.881 304.96 317.895 307.316 318.602C309.719 319.309 312.099 319.662 314.456 319.662C316.812 319.662 318.721 319.214 320.182 318.319C321.643 317.376 322.373 316.08 322.373 314.431C322.373 313.441 322.09 312.569 321.525 311.815C320.959 311.014 319.993 310.425 318.627 310.048C317.26 309.624 315.304 309.412 312.759 309.412H299.328L301.802 280.499H333.33V291.315H306.75L313.89 285.165L312.264 304.675L305.125 298.525H316.082C320.983 298.525 324.918 299.232 327.887 300.646C330.856 302.013 333.024 303.874 334.391 306.231C335.757 308.54 336.441 311.156 336.441 314.077C336.441 316.999 335.663 319.756 334.108 322.348C332.6 324.893 330.267 326.967 327.11 328.569C323.952 330.171 319.875 330.973 314.88 330.973Z" fill="black"/>
</svg>
