<svg width="457" height="269" viewBox="0 0 457 269" fill="none" xmlns="http://www.w3.org/2000/svg">
<path fill-rule="evenodd" clip-rule="evenodd" d="M61.8691 77.3378L77.3366 61.8699V148.001L61.8691 163.468V77.3378Z" fill="black"/>
<path fill-rule="evenodd" clip-rule="evenodd" d="M15.4679 209.87V252.936L0 268.403V139.207L46.4028 92.8049V114.337L15.4679 145.273V188.338L36.7897 167.016V188.548L15.4679 209.87Z" fill="black"/>
<path fill-rule="evenodd" clip-rule="evenodd" d="M123.74 36.9999V80.0652L108.272 95.5326V52.4673L92.8047 67.9353V46.4023L139.207 0V21.5324L123.74 36.9999Z" fill="black"/>
<path fill-rule="evenodd" clip-rule="evenodd" d="M61.8623 177.095L77.3296 161.584V190.841L61.8623 206.308V177.095ZM67.4435 179.403V192.83L71.7434 188.528V175.089L67.4435 179.403Z" fill="black"/>
<path d="M198.456 75.7881V46.9127H201.673V75.7881H198.456ZM200.065 62.9179V59.7416H214.667V62.9179H200.065ZM200.065 50.0478V46.9127H216.606V50.0478H200.065ZM231.42 76.2006C229.275 76.2006 227.364 75.7193 225.686 74.7568C224.036 73.7943 222.73 72.4605 221.768 70.7555C220.833 69.0505 220.365 67.1117 220.365 64.9392C220.365 62.7942 220.833 60.8829 221.768 59.2054C222.73 57.5279 224.036 56.2078 225.686 55.2453C227.364 54.2828 229.275 53.8016 231.42 53.8016C233.538 53.8016 235.421 54.2828 237.071 55.2453C238.749 56.2078 240.055 57.5279 240.99 59.2054C241.953 60.8829 242.434 62.7942 242.434 64.9392C242.434 67.1117 241.953 69.0505 240.99 70.7555C240.055 72.4605 238.749 73.7943 237.071 74.7568C235.421 75.7193 233.538 76.2006 231.42 76.2006ZM231.42 73.2718C232.933 73.2718 234.28 72.9143 235.463 72.1993C236.645 71.4568 237.566 70.4668 238.227 69.2293C238.887 67.9642 239.217 66.5342 239.217 64.9392C239.217 63.3442 238.887 61.9279 238.227 60.6904C237.566 59.4529 236.645 58.4904 235.463 57.8029C234.28 57.0878 232.933 56.7303 231.42 56.7303C229.908 56.7303 228.546 57.0878 227.336 57.8029C226.154 58.4904 225.219 59.4666 224.531 60.7316C223.871 61.9692 223.555 63.3717 223.583 64.9392C223.555 66.5342 223.871 67.9642 224.531 69.2293C225.219 70.4668 226.154 71.4568 227.336 72.1993C228.546 72.9143 229.908 73.2718 231.42 73.2718ZM228.821 51.079L227.708 49.3877L233.565 44.4789L235.586 47.0777L228.821 51.079ZM247.773 75.7881V54.2553H250.867L250.949 59.9891L250.619 59.2054C250.922 58.2429 251.403 57.3491 252.063 56.5241C252.75 55.6991 253.562 55.0391 254.497 54.5441C255.432 54.0491 256.463 53.8016 257.59 53.8016C258.058 53.8016 258.498 53.8428 258.91 53.9253C259.323 53.9803 259.667 54.0628 259.942 54.1728L259.075 57.6379C258.718 57.4728 258.347 57.3628 257.962 57.3078C257.604 57.2253 257.26 57.1841 256.93 57.1841C255.995 57.1841 255.157 57.3491 254.414 57.6791C253.672 58.0091 253.039 58.4766 252.517 59.0816C251.994 59.6591 251.595 60.3329 251.32 61.1029C251.045 61.8729 250.908 62.6979 250.908 63.5779V75.7881H247.773ZM271.618 76.2006C269.968 76.2006 268.565 75.8706 267.41 75.2106C266.282 74.5231 265.416 73.5331 264.811 72.2405C264.234 70.948 263.945 69.3393 263.945 67.4142V54.2553H267.08V66.7955C267.08 68.253 267.272 69.4768 267.657 70.4668C268.07 71.4293 268.675 72.158 269.472 72.653C270.298 73.1481 271.301 73.3956 272.484 73.3956C273.391 73.3956 274.23 73.2443 275 72.9418C275.77 72.6118 276.444 72.1718 277.021 71.6218C277.599 71.0718 278.053 70.4255 278.383 69.683C278.713 68.9405 278.878 68.1567 278.878 67.3317V54.2553H281.971V75.7881H278.919L278.795 71.2505L279.29 71.003C278.96 71.9655 278.41 72.8455 277.64 73.6431C276.87 74.4131 275.949 75.0318 274.876 75.4993C273.831 75.9668 272.745 76.2006 271.618 76.2006ZM288.779 75.7881V54.2553H291.873L291.955 59.1641L291.337 59.3704C291.557 58.5454 291.914 57.8029 292.409 57.1428C292.932 56.4553 293.55 55.8641 294.265 55.3691C294.98 54.8741 295.764 54.5028 296.617 54.2553C297.469 53.9803 298.363 53.8428 299.298 53.8428C300.425 53.8428 301.429 54.0353 302.309 54.4203C303.217 54.7778 303.973 55.4103 304.578 56.3178C305.21 57.1978 305.692 58.3666 306.022 59.8241L305.279 59.4529L305.568 58.7516C305.843 58.1191 306.242 57.5141 306.764 56.9366C307.314 56.3316 307.933 55.7953 308.621 55.3278C309.336 54.8603 310.106 54.5028 310.931 54.2553C311.783 53.9803 312.649 53.8428 313.529 53.8428C315.042 53.8428 316.321 54.1728 317.366 54.8328C318.411 55.4653 319.194 56.4416 319.717 57.7616C320.267 59.0816 320.542 60.7591 320.542 62.7942V75.7881H317.366V62.9592C317.366 61.5292 317.187 60.3604 316.829 59.4529C316.472 58.5454 315.936 57.8716 315.221 57.4316C314.533 56.9641 313.653 56.7303 312.581 56.7303C311.646 56.7303 310.779 56.8953 309.982 57.2253C309.212 57.5279 308.538 57.9679 307.961 58.5454C307.411 59.0954 306.971 59.7279 306.641 60.4429C306.338 61.1579 306.187 61.9279 306.187 62.7529V75.7881H303.052V62.9179C303.052 61.5429 302.859 60.4016 302.474 59.4941C302.117 58.5866 301.58 57.8991 300.865 57.4316C300.15 56.9641 299.27 56.7303 298.225 56.7303C297.318 56.7303 296.479 56.8953 295.709 57.2253C294.939 57.5279 294.265 57.9541 293.688 58.5041C293.138 59.0541 292.698 59.6866 292.368 60.4016C292.065 61.1166 291.914 61.8867 291.914 62.7117V75.7881H288.779ZM348.362 76.2006C346.409 76.2006 344.649 75.7193 343.081 74.7568C341.541 73.7943 340.318 72.4743 339.41 70.7968C338.53 69.0917 338.09 67.1667 338.09 65.0217C338.09 62.8492 338.544 60.9241 339.451 59.2466C340.359 57.5416 341.583 56.2078 343.123 55.2453C344.663 54.2828 346.395 53.8016 348.32 53.8016C349.393 53.8016 350.424 53.9666 351.414 54.2966C352.432 54.6266 353.339 55.0941 354.137 55.6991C354.934 56.2766 355.594 56.9503 356.117 57.7204C356.639 58.4629 356.955 59.2466 357.065 60.0716L356.117 59.7416V45.2627H359.21V75.7881H356.158L356.075 70.4255L356.859 70.1368C356.749 70.9068 356.433 71.663 355.91 72.4055C355.415 73.1206 354.783 73.7668 354.013 74.3443C353.243 74.9218 352.363 75.3756 351.373 75.7056C350.41 76.0356 349.407 76.2006 348.362 76.2006ZM348.815 73.3543C350.245 73.3543 351.524 72.9968 352.652 72.2818C353.779 71.5668 354.659 70.5768 355.292 69.3118C355.952 68.0467 356.282 66.603 356.282 64.9804C356.282 63.3579 355.952 61.9279 355.292 60.6904C354.659 59.4254 353.779 58.4354 352.652 57.7204C351.524 56.9778 350.245 56.6066 348.815 56.6066C347.33 56.6066 346.024 56.9778 344.897 57.7204C343.796 58.4354 342.916 59.4254 342.256 60.6904C341.624 61.9279 341.308 63.3579 341.308 64.9804C341.308 66.5755 341.624 68.0055 342.256 69.2705C342.889 70.5355 343.769 71.5393 344.897 72.2818C346.024 72.9968 347.33 73.3543 348.815 73.3543ZM375.55 76.2006C373.404 76.2006 371.493 75.7331 369.816 74.7981C368.166 73.8631 366.873 72.5568 365.938 70.8793C365.003 69.2018 364.536 67.2767 364.536 65.1042C364.536 63.4267 364.797 61.9142 365.319 60.5666C365.842 59.1916 366.571 57.9954 367.506 56.9778C368.468 55.9603 369.609 55.1766 370.929 54.6266C372.249 54.0491 373.68 53.7603 375.22 53.7603C376.677 53.7603 377.997 54.0216 379.18 54.5441C380.39 55.0666 381.421 55.7953 382.273 56.7303C383.153 57.6379 383.813 58.7241 384.253 59.9891C384.693 61.2541 384.886 62.6429 384.831 64.1554L384.79 65.5992H366.846L366.392 63.0004H382.438L381.696 63.7017V62.7117C381.641 61.7217 381.352 60.7729 380.83 59.8654C380.307 58.9304 379.565 58.1741 378.602 57.5966C377.667 57.0191 376.54 56.7303 375.22 56.7303C373.68 56.7303 372.346 57.0466 371.218 57.6791C370.091 58.2841 369.224 59.1916 368.619 60.4016C368.014 61.6117 367.712 63.1104 367.712 64.8979C367.712 66.603 368.042 68.088 368.702 69.353C369.362 70.5905 370.297 71.553 371.507 72.2405C372.744 72.928 374.23 73.2718 375.962 73.2718C376.98 73.2718 377.983 73.1068 378.973 72.7768C379.991 72.4193 381.105 71.7318 382.315 70.7143L383.923 72.9418C383.291 73.5743 382.535 74.1381 381.655 74.6331C380.775 75.1006 379.812 75.4856 378.767 75.7881C377.722 76.0631 376.65 76.2006 375.55 76.2006ZM197.727 157.788V93.1073H207.231V157.788H197.727ZM214.753 157.788V109.651H223.641V113.7C224.697 112.673 225.885 111.631 227.205 110.575C228.525 109.49 229.743 108.947 230.857 108.947C232.324 108.947 233.556 109.417 234.553 110.355C235.551 111.294 236.299 112.482 236.798 113.92C237.296 115.357 237.546 116.838 237.546 118.364V157.788H228.657V120.124C228.657 119.185 228.496 118.525 228.173 118.144C227.851 117.762 227.308 117.572 226.545 117.572C225.9 117.572 225.343 117.806 224.873 118.276C224.433 118.716 224.023 119.244 223.641 119.86V157.788H214.753ZM254.626 158.404C251.077 158.404 248.29 157.216 246.266 154.84C244.242 152.435 243.23 149.399 243.23 145.732V121.62C243.23 117.953 244.242 114.932 246.266 112.556C248.29 110.15 251.077 108.947 254.626 108.947C258.146 108.947 260.918 110.15 262.942 112.556C264.995 114.932 266.022 117.953 266.022 121.62V145.732C266.022 149.399 264.995 152.435 262.942 154.84C260.918 157.216 258.146 158.404 254.626 158.404ZM254.626 150.66C255.77 150.66 256.562 150.205 257.002 149.296C257.442 148.357 257.662 147.169 257.662 145.732V121.62C257.662 120.153 257.442 118.965 257.002 118.056C256.562 117.146 255.77 116.692 254.626 116.692C253.482 116.692 252.69 117.146 252.25 118.056C251.81 118.965 251.59 120.153 251.59 121.62V145.732C251.59 147.199 251.81 148.387 252.25 149.296C252.69 150.205 253.482 150.66 254.626 150.66ZM278.019 157.788L270.187 109.651H278.811L281.803 137.548L282.067 142.388H282.771L283.035 137.548L286.027 109.651H294.651L286.819 157.788H278.019ZM305.575 158.492C303.522 158.492 301.747 157.451 300.251 155.368C298.755 153.285 298.007 150.103 298.007 145.82C298.007 141.684 298.887 138.355 300.647 135.832C302.436 133.309 305.106 131.124 308.655 129.276C309.77 128.689 310.709 128.161 311.471 127.692C312.234 127.222 312.703 126.782 312.879 126.372V121.092C312.879 119.889 312.733 118.862 312.439 118.012C312.175 117.132 311.501 116.692 310.415 116.692C309.418 116.692 308.743 117.161 308.391 118.1C308.039 119.009 307.863 120.153 307.863 121.532V123.82H298.975V121.796C298.975 119.156 299.488 116.882 300.515 114.976C301.571 113.04 302.994 111.558 304.783 110.531C306.602 109.475 308.655 108.947 310.943 108.947C313.143 108.947 315.05 109.461 316.663 110.487C318.277 111.485 319.523 112.878 320.403 114.668C321.313 116.428 321.767 118.452 321.767 120.74V149.428C321.767 151.569 321.826 153.241 321.943 154.444C322.061 155.617 322.207 156.732 322.383 157.788H313.671C313.29 157.319 313.055 156.629 312.967 155.72C312.909 154.811 312.879 154.209 312.879 153.916H312.263C311.53 155.265 310.591 156.365 309.447 157.216C308.333 158.067 307.042 158.492 305.575 158.492ZM309.183 149.78C310.21 149.78 311.075 149.428 311.779 148.724C312.513 148.02 312.879 147.257 312.879 146.436V134.996C310.738 135.905 309.169 137.284 308.171 139.132C307.203 140.951 306.719 143.004 306.719 145.292C306.719 146.289 306.91 147.287 307.291 148.284C307.673 149.281 308.303 149.78 309.183 149.78ZM339.441 158.448C335.54 158.448 332.665 157.231 330.817 154.796C328.998 152.361 328.089 148.973 328.089 144.632V122.764C328.089 118.393 328.998 115.005 330.817 112.6C332.665 110.165 335.54 108.947 339.441 108.947C343.343 108.947 346.217 110.165 348.065 112.6C349.943 115.034 350.881 118.422 350.881 122.764V126.548H341.993V121.62C341.993 120.27 341.817 119.141 341.465 118.232C341.113 117.322 340.439 116.868 339.441 116.868C338.444 116.868 337.784 117.337 337.461 118.276C337.138 119.185 336.977 120.3 336.977 121.62V145.776C336.977 147.096 337.138 148.225 337.461 149.164C337.784 150.073 338.444 150.528 339.441 150.528C340.439 150.528 341.113 150.073 341.465 149.164C341.817 148.255 341.993 147.125 341.993 145.776V140.848H350.881V144.632C350.881 148.973 349.943 152.361 348.065 154.796C346.217 157.231 343.343 158.448 339.441 158.448ZM344.897 160.472C346.188 160.472 347.361 160.897 348.417 161.748C349.473 162.628 350.001 164.095 350.001 166.148C350.001 168.055 349.459 169.61 348.373 170.812C347.317 172.044 345.939 172.939 344.237 173.496C342.565 174.054 340.805 174.332 338.957 174.332C337.373 174.332 335.76 174.083 334.117 173.584C332.504 173.115 331.316 172.602 330.553 172.044L332.841 167.204C333.369 167.586 334.278 168.04 335.569 168.568C336.889 169.096 338.18 169.36 339.441 169.36C340.732 169.36 341.832 169.14 342.741 168.7C343.651 168.26 344.105 167.498 344.105 166.412C344.105 165.503 343.856 164.887 343.357 164.564C342.888 164.242 342.375 164.08 341.817 164.08C340.497 164.08 339.544 164.579 338.957 165.576L334.161 163.992L336.757 157.788H341.993L339.925 162.54H339.529C339.764 161.895 340.424 161.381 341.509 161C342.595 160.648 343.724 160.472 344.897 160.472ZM363.494 158.492C361.441 158.492 359.666 157.451 358.17 155.368C356.674 153.285 355.926 150.103 355.926 145.82C355.926 141.684 356.806 138.355 358.566 135.832C360.356 133.309 363.025 131.124 366.574 129.276C367.689 128.689 368.628 128.161 369.39 127.692C370.153 127.222 370.622 126.782 370.798 126.372V121.092C370.798 119.889 370.652 118.862 370.358 118.012C370.094 117.132 369.42 116.692 368.334 116.692C367.337 116.692 366.662 117.161 366.31 118.1C365.958 119.009 365.782 120.153 365.782 121.532V123.82H356.894V121.796C356.894 119.156 357.408 116.882 358.434 114.976C359.49 113.04 360.913 111.558 362.702 110.531C364.521 109.475 366.574 108.947 368.862 108.947C371.062 108.947 372.969 109.461 374.583 110.487C376.196 111.485 377.443 112.878 378.323 114.668C379.232 116.428 379.687 118.452 379.687 120.74V149.428C379.687 151.569 379.745 153.241 379.863 154.444C379.98 155.617 380.127 156.732 380.303 157.788H371.59C371.209 157.319 370.974 156.629 370.886 155.72C370.828 154.811 370.798 154.209 370.798 153.916H370.182C369.449 155.265 368.51 156.365 367.366 157.216C366.252 158.067 364.961 158.492 363.494 158.492ZM367.102 149.78C368.129 149.78 368.994 149.428 369.698 148.724C370.432 148.02 370.798 147.257 370.798 146.436V134.996C368.657 135.905 367.088 137.284 366.09 139.132C365.122 140.951 364.638 143.004 364.638 145.292C364.638 146.289 364.829 147.287 365.21 148.284C365.592 149.281 366.222 149.78 367.102 149.78ZM372.382 104.767C371.004 104.767 369.742 104.503 368.598 103.975C367.337 103.389 366.017 103.095 364.638 103.095C363.846 103.095 363.025 103.242 362.174 103.535C361.324 103.799 360.59 104.122 359.974 104.503V97.9913C360.385 97.6686 360.84 97.4046 361.338 97.1993C361.837 96.9646 362.35 96.7593 362.878 96.5833C363.406 96.4073 363.993 96.3193 364.638 96.3193C366.017 96.3193 367.308 96.554 368.51 97.0233C369.156 97.258 369.801 97.478 370.446 97.6833C371.092 97.8887 371.737 97.9913 372.382 97.9913C373.175 97.9913 373.996 97.8593 374.847 97.5953C375.697 97.302 376.431 96.9646 377.047 96.5833V103.095C376.489 103.594 375.741 104.005 374.803 104.327C373.864 104.621 373.057 104.767 372.382 104.767ZM397.404 158.404C393.855 158.404 391.068 157.216 389.044 154.84C387.02 152.435 386.008 149.399 386.008 145.732V121.62C386.008 117.953 387.02 114.932 389.044 112.556C391.068 110.15 393.855 108.947 397.404 108.947C400.924 108.947 403.696 110.15 405.72 112.556C407.774 114.932 408.801 117.953 408.801 121.62V145.732C408.801 149.399 407.774 152.435 405.72 154.84C403.696 157.216 400.924 158.404 397.404 158.404ZM397.404 150.66C398.548 150.66 399.34 150.205 399.78 149.296C400.22 148.357 400.44 147.169 400.44 145.732V121.62C400.44 120.153 400.22 118.965 399.78 118.056C399.34 117.146 398.548 116.692 397.404 116.692C396.26 116.692 395.468 117.146 395.028 118.056C394.588 118.965 394.368 120.153 394.368 121.62V145.732C394.368 147.199 394.588 148.387 395.028 149.296C395.468 150.205 396.26 150.66 397.404 150.66ZM435.894 158.228C433.675 158.228 431.925 157.467 430.641 155.946C429.376 154.406 428.744 152.526 428.744 150.308V135.183C428.744 132.836 429.376 130.929 430.641 129.463C431.906 127.996 433.675 127.263 435.949 127.263C437.434 127.263 438.708 127.602 439.771 128.28C440.853 128.959 441.678 129.884 442.246 131.058C442.815 132.213 443.099 133.533 443.099 135.018V143.763H433.914V150.308C433.914 151.06 434.079 151.756 434.409 152.398C434.757 153.021 435.271 153.333 435.949 153.333C436.664 153.333 437.168 153.04 437.461 152.453C437.773 151.866 437.929 151.151 437.929 150.308V147.008H443.099V150.473C443.099 152.801 442.466 154.681 441.201 156.111C439.955 157.522 438.186 158.228 435.894 158.228ZM433.914 139.418H437.929V135.183C437.929 134.358 437.782 133.643 437.489 133.038C437.214 132.414 436.701 132.103 435.949 132.103C435.252 132.103 434.739 132.424 434.409 133.065C434.079 133.689 433.914 134.394 433.914 135.183V139.418ZM204.063 240.788V185.875H195.087V176.107H222.543V185.875H213.567V240.788H204.063ZM235.894 241.492C232.345 241.492 229.543 240.275 227.49 237.84C225.466 235.376 224.454 232.369 224.454 228.82V204.62C224.454 200.865 225.466 197.814 227.49 195.468C229.514 193.121 232.345 191.947 235.982 191.947C238.358 191.947 240.397 192.49 242.098 193.575C243.829 194.661 245.149 196.142 246.058 198.02C246.968 199.868 247.422 201.98 247.422 204.356V218.348H232.726V228.82C232.726 230.023 232.99 231.137 233.518 232.164C234.075 233.161 234.897 233.66 235.982 233.66C237.126 233.66 237.933 233.191 238.402 232.252C238.901 231.313 239.15 230.169 239.15 228.82V223.54H247.422V229.084C247.422 232.809 246.41 235.816 244.386 238.104C242.392 240.363 239.561 241.492 235.894 241.492ZM232.726 211.396H239.15V204.62C239.15 203.3 238.915 202.156 238.446 201.188C238.006 200.19 237.185 199.692 235.982 199.692C234.867 199.692 234.046 200.205 233.518 201.232C232.99 202.229 232.726 203.358 232.726 204.62V211.396ZM264.035 241.448C260.134 241.448 257.259 240.231 255.411 237.796C253.592 235.361 252.683 231.973 252.683 227.632V205.764C252.683 201.393 253.592 198.005 255.411 195.6C257.259 193.165 260.134 191.947 264.035 191.947C267.937 191.947 270.811 193.165 272.659 195.6C274.537 198.034 275.475 201.422 275.475 205.764V209.548H266.587V204.62C266.587 203.27 266.411 202.141 266.059 201.232C265.707 200.322 265.033 199.868 264.035 199.868C263.038 199.868 262.378 200.337 262.055 201.276C261.733 202.185 261.571 203.3 261.571 204.62V228.776C261.571 230.096 261.733 231.225 262.055 232.164C262.378 233.073 263.038 233.528 264.035 233.528C265.033 233.528 265.707 233.073 266.059 232.164C266.411 231.255 266.587 230.125 266.587 228.776V223.848H275.475V227.632C275.475 231.973 274.537 235.361 272.659 237.796C270.811 240.231 267.937 241.448 264.035 241.448ZM281.18 240.788V192.651H290.068V196.7C291.124 195.673 292.312 194.631 293.632 193.575C294.953 192.49 296.17 191.947 297.285 191.947C298.751 191.947 299.983 192.417 300.981 193.355C301.978 194.294 302.726 195.482 303.225 196.92C303.723 198.357 303.973 199.838 303.973 201.364V240.788H295.085V203.124C295.085 202.185 294.923 201.525 294.601 201.144C294.278 200.762 293.735 200.572 292.972 200.572C292.327 200.572 291.77 200.806 291.3 201.276C290.86 201.716 290.45 202.244 290.068 202.86V240.788H281.18ZM321.053 241.404C317.504 241.404 314.717 240.216 312.693 237.84C310.669 235.435 309.657 232.399 309.657 228.732V204.62C309.657 200.953 310.669 197.932 312.693 195.556C314.717 193.15 317.504 191.947 321.053 191.947C324.573 191.947 327.345 193.15 329.369 195.556C331.423 197.932 332.449 200.953 332.449 204.62V228.732C332.449 232.399 331.423 235.435 329.369 237.84C327.345 240.216 324.573 241.404 321.053 241.404ZM321.053 233.66C322.197 233.66 322.989 233.205 323.429 232.296C323.869 231.357 324.089 230.169 324.089 228.732V204.62C324.089 203.153 323.869 201.965 323.429 201.056C322.989 200.146 322.197 199.692 321.053 199.692C319.909 199.692 319.117 200.146 318.677 201.056C318.237 201.965 318.017 203.153 318.017 204.62V228.732C318.017 230.199 318.237 231.387 318.677 232.296C319.117 233.205 319.909 233.66 321.053 233.66ZM338.594 240.788V176.107H347.482V240.788H338.594ZM365.05 241.404C361.501 241.404 358.714 240.216 356.69 237.84C354.666 235.435 353.654 232.399 353.654 228.732V204.62C353.654 200.953 354.666 197.932 356.69 195.556C358.714 193.15 361.501 191.947 365.05 191.947C368.57 191.947 371.342 193.15 373.366 195.556C375.42 197.932 376.446 200.953 376.446 204.62V228.732C376.446 232.399 375.42 235.435 373.366 237.84C371.342 240.216 368.57 241.404 365.05 241.404ZM365.05 233.66C366.194 233.66 366.986 233.205 367.426 232.296C367.866 231.357 368.086 230.169 368.086 228.732V204.62C368.086 203.153 367.866 201.965 367.426 201.056C366.986 200.146 366.194 199.692 365.05 199.692C363.906 199.692 363.114 200.146 362.674 201.056C362.234 201.965 362.014 203.153 362.014 204.62V228.732C362.014 230.199 362.234 231.387 362.674 232.296C363.114 233.205 363.906 233.66 365.05 233.66ZM394.867 258.036C392.374 258.036 390.042 257.758 387.871 257.2C385.701 256.643 383.941 255.734 382.591 254.472C381.271 253.24 380.611 251.612 380.611 249.588C380.611 248.034 381.037 246.684 381.887 245.54C382.767 244.396 383.765 243.457 384.879 242.724C385.994 242.02 386.889 241.58 387.563 241.404C386.126 240.993 384.865 240.289 383.779 239.292C382.723 238.295 382.195 236.857 382.195 234.98C382.195 233.161 382.782 231.68 383.955 230.536C385.129 229.392 386.39 228.468 387.739 227.764C386.126 226.708 384.865 225.329 383.955 223.628C383.075 221.897 382.635 219.785 382.635 217.292V204.18C382.635 200.572 383.633 197.638 385.627 195.38C387.651 193.091 390.409 191.947 393.899 191.947C396.158 191.947 397.992 192.387 399.4 193.267C400.837 194.118 401.966 195.145 402.788 196.348C403.638 194.91 404.782 193.825 406.22 193.091C407.657 192.329 408.948 191.947 410.092 191.947V199.868C408.918 199.868 407.892 199.97 407.012 200.176C406.132 200.352 405.428 200.601 404.9 200.924C404.988 201.129 405.076 201.554 405.164 202.2C405.281 202.845 405.34 203.417 405.34 203.916V217.556C405.34 220.958 404.298 223.789 402.216 226.048C400.133 228.307 397.361 229.436 393.899 229.436C393.078 229.436 392.521 229.407 392.227 229.348C391.846 229.7 391.538 230.052 391.303 230.404C391.098 230.756 390.995 231.137 390.995 231.548C390.995 232.487 391.523 233.161 392.579 233.572C393.665 233.953 395.102 234.276 396.891 234.54C400.676 235.097 403.741 236.197 406.088 237.84C408.464 239.483 409.652 242.108 409.652 245.716C409.652 248.532 408.933 250.85 407.496 252.668C406.088 254.487 404.254 255.836 401.996 256.716C399.737 257.596 397.361 258.036 394.867 258.036ZM395.043 250.556C396.51 250.556 397.786 250.292 398.872 249.764C399.957 249.236 400.5 248.415 400.5 247.3C400.5 246.185 400.162 245.423 399.488 245.012C398.842 244.631 397.742 244.249 396.187 243.868L392.491 242.988C391.582 243.516 390.805 244.117 390.159 244.792C389.543 245.467 389.235 246.273 389.235 247.212C389.235 248.122 389.69 248.899 390.599 249.544C391.509 250.219 392.99 250.556 395.043 250.556ZM393.987 222.044C394.926 222.044 395.601 221.721 396.011 221.076C396.422 220.43 396.627 219.462 396.627 218.172V204.092C396.627 202.918 396.437 201.965 396.055 201.232C395.674 200.498 394.985 200.132 393.987 200.132C392.99 200.132 392.301 200.513 391.919 201.276C391.538 202.038 391.347 202.977 391.347 204.092V218.172C391.347 219.462 391.553 220.43 391.963 221.076C392.374 221.721 393.049 222.044 393.987 222.044ZM414.688 240.788V192.651H423.576V240.788H414.688ZM414.688 184.995V176.107H423.576V184.995H414.688ZM437.096 241.492C435.042 241.492 433.268 240.451 431.772 238.368C430.276 236.285 429.528 233.103 429.528 228.82C429.528 224.684 430.408 221.355 432.168 218.832C433.957 216.309 436.626 214.124 440.176 212.276C441.29 211.689 442.229 211.161 442.992 210.692C443.754 210.222 444.224 209.782 444.4 209.372V204.092C444.4 202.889 444.253 201.862 443.96 201.012C443.696 200.132 443.021 199.692 441.936 199.692C440.938 199.692 440.264 200.161 439.912 201.1C439.56 202.009 439.384 203.153 439.384 204.532V206.82H430.496V204.796C430.496 202.156 431.009 199.882 432.036 197.976C433.092 196.04 434.514 194.558 436.304 193.531C438.122 192.475 440.176 191.947 442.464 191.947C444.664 191.947 446.57 192.461 448.184 193.487C449.797 194.485 451.044 195.878 451.924 197.668C452.833 199.428 453.288 201.452 453.288 203.74V232.428C453.288 234.569 453.347 236.241 453.464 237.444C453.581 238.617 453.728 239.732 453.904 240.788H445.192C444.81 240.319 444.576 239.629 444.488 238.72C444.429 237.811 444.4 237.209 444.4 236.916H443.784C443.05 238.265 442.112 239.365 440.968 240.216C439.853 241.067 438.562 241.492 437.096 241.492ZM440.704 232.78C441.73 232.78 442.596 232.428 443.3 231.724C444.033 231.02 444.4 230.257 444.4 229.436V217.996C442.258 218.905 440.689 220.284 439.692 222.132C438.724 223.951 438.24 226.004 438.24 228.292C438.24 229.289 438.43 230.287 438.812 231.284C439.193 232.281 439.824 232.78 440.704 232.78Z" fill="black"/>
<line x1="167.532" x2="167.532" y2="268.403" stroke="black" stroke-width="1.65002"/>
</svg>
